<svg width="27" height="26" viewBox="0 0 27 26" fill="none" xmlns="http://www.w3.org/2000/svg">
<path fill-rule="evenodd" clip-rule="evenodd" d="M7.81677 0.0767061C9.23503 0.0139465 9.68723 0 13.3 0C16.9127 0 17.3649 0.0151088 18.782 0.0767061C20.1991 0.138303 21.1663 0.355637 22.0127 0.670597C22.899 0.992531 23.703 1.49577 24.368 2.14661C25.0451 2.78466 25.5674 3.55637 25.9011 4.40944C26.23 5.22299 26.4549 6.15276 26.5202 7.51255C26.5855 8.87815 26.6 9.31282 26.6 12.7844C26.6 16.257 26.5843 16.6917 26.5202 18.055C26.4561 19.4148 26.23 20.3446 25.9011 21.1581C25.5674 22.0113 25.0442 22.7843 24.368 23.4233C23.703 24.0741 22.899 24.5762 22.0127 24.8969C21.1663 25.2131 20.1991 25.4292 18.7844 25.492C17.3649 25.5548 16.9127 25.5687 13.3 25.5687C9.68723 25.5687 9.23503 25.5536 7.81677 25.492C6.40213 25.4304 5.43486 25.2131 4.5885 24.8969C3.70093 24.5761 2.89676 24.0732 2.23198 23.4233C1.55535 22.7848 1.03173 22.0122 0.697645 21.1593C0.369981 20.3457 0.145091 19.4159 0.0797999 18.0562C0.0145091 16.6906 0 16.2559 0 12.7844C0 9.31166 0.0157181 8.87699 0.0797999 7.51488C0.143882 6.15276 0.369981 5.22299 0.697645 4.40944C1.03223 3.55647 1.55624 2.78387 2.23319 2.14545C2.89703 1.49519 3.70039 0.991884 4.58729 0.670597C5.43365 0.355637 6.40092 0.139466 7.81556 0.0767061H7.81677ZM18.6744 2.37789C17.2718 2.31629 16.8511 2.30351 13.3 2.30351C9.74889 2.30351 9.32813 2.31629 7.92558 2.37789C6.62823 2.43484 5.92454 2.64287 5.45541 2.81837C4.83515 3.05081 4.39141 3.32626 3.92591 3.77371C3.48465 4.18635 3.14506 4.6887 2.93204 5.24391C2.74947 5.69485 2.53304 6.37126 2.4738 7.61831C2.40972 8.96648 2.39642 9.37093 2.39642 12.7844C2.39642 16.1978 2.40972 16.6022 2.4738 17.9504C2.53304 19.1974 2.74947 19.8739 2.93204 20.3248C3.14484 20.8792 3.4846 21.3824 3.92591 21.795C4.35514 22.2192 4.87868 22.5458 5.45541 22.7503C5.92454 22.9258 6.62823 23.1339 7.92558 23.1908C9.32813 23.2524 9.74768 23.2652 13.3 23.2652C16.8523 23.2652 17.2718 23.2524 18.6744 23.1908C19.9717 23.1339 20.6754 22.9258 21.1446 22.7503C21.7648 22.5179 22.2086 22.2425 22.6741 21.795C23.1154 21.3824 23.4551 20.8792 23.6679 20.3248C23.8505 19.8739 24.0669 19.1974 24.1262 17.9504C24.1903 16.6022 24.2036 16.1978 24.2036 12.7844C24.2036 9.37093 24.1903 8.96648 24.1262 7.61831C24.0669 6.37126 23.8505 5.69485 23.6679 5.24391C23.4261 4.64769 23.1396 4.22116 22.6741 3.77371C22.2447 3.34958 21.7221 3.02316 21.1446 2.81837C20.6754 2.64287 19.9717 2.43484 18.6744 2.37789ZM11.6012 16.7254C12.5499 17.105 13.6063 17.1563 14.59 16.8704C15.5737 16.5845 16.4235 15.9792 16.9945 15.1579C17.5654 14.3366 17.8221 13.3502 17.7205 12.3672C17.6189 11.3843 17.1655 10.4657 16.4376 9.76841C15.9736 9.32267 15.4125 8.98137 14.7948 8.76907C14.1771 8.55678 13.5181 8.47877 12.8653 8.54066C12.2125 8.60256 11.5821 8.80281 11.0194 9.12702C10.4568 9.45122 9.97589 9.8913 9.61142 10.4156C9.24695 10.9399 9.00795 11.5353 8.91162 12.159C8.81528 12.7828 8.86402 13.4193 9.05432 14.0227C9.24461 14.6262 9.57174 15.1815 10.0121 15.6489C10.4525 16.1162 10.9953 16.4839 11.6012 16.7254ZM8.46605 8.13782C9.10085 7.52763 9.85447 7.0436 10.6839 6.71337C11.5133 6.38313 12.4022 6.21317 13.3 6.21317C14.1977 6.21317 15.0867 6.38313 15.9161 6.71337C16.7455 7.0436 17.4991 7.52763 18.1339 8.13782C18.7687 8.74801 19.2723 9.47241 19.6158 10.2697C19.9594 11.0669 20.1362 11.9214 20.1362 12.7844C20.1362 13.6473 19.9594 14.5018 19.6158 15.299C19.2723 16.0963 18.7687 16.8207 18.1339 17.4309C16.8519 18.6632 15.1131 19.3555 13.3 19.3555C11.4869 19.3555 9.74809 18.6632 8.46605 17.4309C7.18401 16.1985 6.46376 14.5271 6.46376 12.7844C6.46376 11.0416 7.18401 9.37016 8.46605 8.13782ZM21.6524 7.19178C21.8097 7.04914 21.9356 6.87761 22.0227 6.68735C22.1098 6.49709 22.1563 6.29196 22.1595 6.08411C22.1626 5.87626 22.1224 5.66992 22.0411 5.47729C21.9598 5.28467 21.8391 5.10969 21.6862 4.9627C21.5333 4.81571 21.3512 4.69971 21.1508 4.62156C20.9504 4.54342 20.7358 4.50471 20.5195 4.50774C20.3033 4.51077 20.0899 4.55548 19.892 4.6392C19.694 4.72293 19.5156 4.84399 19.3672 4.9952C19.0786 5.28927 18.9206 5.67988 18.9267 6.08411C18.9329 6.48834 19.1026 6.87435 19.4 7.16022C19.6974 7.44608 20.099 7.60928 20.5195 7.61517C20.9401 7.62107 21.3464 7.46919 21.6524 7.19178Z" fill="black"/>
</svg>
